<mxfile host="65bd71144e">
    <diagram name="Page-1" id="2YBvvXClWsGukQMizWep">
        <mxGraphModel dx="664" dy="502" grid="1" gridSize="10" guides="1" tooltips="1" connect="1" arrows="1" fold="1" page="1" pageScale="1" pageWidth="850" pageHeight="1100" math="0" shadow="0">
            <root>
                <mxCell id="0"/>
                <mxCell id="1" parent="0"/>
                <mxCell id="7" value="" style="html=1;points=[];perimeter=orthogonalPerimeter;outlineConnect=0;targetShapes=umlLifeline;portConstraint=eastwest;newEdgeStyle={&quot;edgeStyle&quot;:&quot;elbowEdgeStyle&quot;,&quot;elbow&quot;:&quot;vertical&quot;,&quot;curved&quot;:0,&quot;rounded&quot;:0};" vertex="1" parent="1">
                    <mxGeometry x="115" y="310" width="10" height="200" as="geometry"/>
                </mxCell>
                <mxCell id="8" value="" style="html=1;points=[];perimeter=orthogonalPerimeter;outlineConnect=0;targetShapes=umlLifeline;portConstraint=eastwest;newEdgeStyle={&quot;edgeStyle&quot;:&quot;elbowEdgeStyle&quot;,&quot;elbow&quot;:&quot;vertical&quot;,&quot;curved&quot;:0,&quot;rounded&quot;:0};" vertex="1" parent="1">
                    <mxGeometry x="295" y="310" width="10" height="200" as="geometry"/>
                </mxCell>
                <mxCell id="aM9ryv3xv72pqoxQDRHE-1" value="Client" style="shape=umlLifeline;perimeter=lifelinePerimeter;whiteSpace=wrap;html=1;container=0;dropTarget=0;collapsible=0;recursiveResize=0;outlineConnect=0;portConstraint=eastwest;newEdgeStyle={&quot;edgeStyle&quot;:&quot;elbowEdgeStyle&quot;,&quot;elbow&quot;:&quot;vertical&quot;,&quot;curved&quot;:0,&quot;rounded&quot;:0};" parent="1" vertex="1">
                    <mxGeometry x="70" y="30" width="100" height="370" as="geometry"/>
                </mxCell>
                <mxCell id="aM9ryv3xv72pqoxQDRHE-2" value="" style="html=1;points=[];perimeter=orthogonalPerimeter;outlineConnect=0;targetShapes=umlLifeline;portConstraint=eastwest;newEdgeStyle={&quot;edgeStyle&quot;:&quot;elbowEdgeStyle&quot;,&quot;elbow&quot;:&quot;vertical&quot;,&quot;curved&quot;:0,&quot;rounded&quot;:0};" parent="aM9ryv3xv72pqoxQDRHE-1" vertex="1">
                    <mxGeometry x="45" y="70" width="10" height="200" as="geometry"/>
                </mxCell>
                <mxCell id="aM9ryv3xv72pqoxQDRHE-4" value="" style="html=1;points=[];perimeter=orthogonalPerimeter;outlineConnect=0;targetShapes=umlLifeline;portConstraint=eastwest;newEdgeStyle={&quot;edgeStyle&quot;:&quot;elbowEdgeStyle&quot;,&quot;elbow&quot;:&quot;vertical&quot;,&quot;curved&quot;:0,&quot;rounded&quot;:0};fontSize=10;" parent="aM9ryv3xv72pqoxQDRHE-1" vertex="1">
                    <mxGeometry x="50" y="140" width="10" height="110" as="geometry"/>
                </mxCell>
                <mxCell id="aM9ryv3xv72pqoxQDRHE-5" value="Server" style="shape=umlLifeline;perimeter=lifelinePerimeter;whiteSpace=wrap;html=1;container=0;dropTarget=0;collapsible=0;recursiveResize=0;outlineConnect=0;portConstraint=eastwest;newEdgeStyle={&quot;edgeStyle&quot;:&quot;elbowEdgeStyle&quot;,&quot;elbow&quot;:&quot;vertical&quot;,&quot;curved&quot;:0,&quot;rounded&quot;:0};" parent="1" vertex="1">
                    <mxGeometry x="250" y="30" width="100" height="370" as="geometry"/>
                </mxCell>
                <mxCell id="aM9ryv3xv72pqoxQDRHE-6" value="" style="html=1;points=[];perimeter=orthogonalPerimeter;outlineConnect=0;targetShapes=umlLifeline;portConstraint=eastwest;newEdgeStyle={&quot;edgeStyle&quot;:&quot;elbowEdgeStyle&quot;,&quot;elbow&quot;:&quot;vertical&quot;,&quot;curved&quot;:0,&quot;rounded&quot;:0};" parent="aM9ryv3xv72pqoxQDRHE-5" vertex="1">
                    <mxGeometry x="45" y="80" width="10" height="190" as="geometry"/>
                </mxCell>
                <mxCell id="E7vXqbml-rJaC64gT5eP-6" value="" style="html=1;points=[];perimeter=orthogonalPerimeter;outlineConnect=0;targetShapes=umlLifeline;portConstraint=eastwest;newEdgeStyle={&quot;edgeStyle&quot;:&quot;elbowEdgeStyle&quot;,&quot;elbow&quot;:&quot;vertical&quot;,&quot;curved&quot;:0,&quot;rounded&quot;:0};fontSize=10;" parent="aM9ryv3xv72pqoxQDRHE-5" vertex="1">
                    <mxGeometry x="37.5" y="140" width="25" height="110" as="geometry"/>
                </mxCell>
                <mxCell id="aM9ryv3xv72pqoxQDRHE-7" value="握手" style="html=1;verticalAlign=bottom;endArrow=block;edgeStyle=elbowEdgeStyle;elbow=vertical;curved=0;rounded=0;fontSize=10;labelBackgroundColor=default;" parent="1" source="aM9ryv3xv72pqoxQDRHE-2" target="aM9ryv3xv72pqoxQDRHE-6" edge="1">
                    <mxGeometry x="0.0017" y="-10" relative="1" as="geometry">
                        <mxPoint x="225" y="120" as="sourcePoint"/>
                        <Array as="points">
                            <mxPoint x="210" y="110"/>
                        </Array>
                        <mxPoint as="offset"/>
                    </mxGeometry>
                </mxCell>
                <mxCell id="E7vXqbml-rJaC64gT5eP-1" style="edgeStyle=elbowEdgeStyle;rounded=0;orthogonalLoop=1;jettySize=auto;html=1;elbow=vertical;curved=0;fontSize=10;labelBackgroundColor=none;" parent="1" source="aM9ryv3xv72pqoxQDRHE-6" target="aM9ryv3xv72pqoxQDRHE-2" edge="1">
                    <mxGeometry relative="1" as="geometry">
                        <Array as="points">
                            <mxPoint x="225" y="130"/>
                        </Array>
                    </mxGeometry>
                </mxCell>
                <mxCell id="E7vXqbml-rJaC64gT5eP-2" value="握手成功" style="edgeLabel;html=1;align=center;verticalAlign=middle;resizable=0;points=[];fontSize=10;labelBackgroundColor=default;" parent="E7vXqbml-rJaC64gT5eP-1" vertex="1" connectable="0">
                    <mxGeometry x="0.0117" y="-1" relative="1" as="geometry">
                        <mxPoint y="1" as="offset"/>
                    </mxGeometry>
                </mxCell>
                <mxCell id="E7vXqbml-rJaC64gT5eP-3" value="建房" style="html=1;verticalAlign=bottom;endArrow=block;edgeStyle=elbowEdgeStyle;elbow=vertical;curved=0;rounded=0;fontSize=10;labelBackgroundColor=default;" parent="1" edge="1">
                    <mxGeometry y="-10" relative="1" as="geometry">
                        <mxPoint x="125" y="150" as="sourcePoint"/>
                        <Array as="points">
                            <mxPoint x="220" y="150"/>
                        </Array>
                        <mxPoint x="294.9999999999998" y="150" as="targetPoint"/>
                        <mxPoint as="offset"/>
                    </mxGeometry>
                </mxCell>
                <mxCell id="E7vXqbml-rJaC64gT5eP-4" style="edgeStyle=elbowEdgeStyle;rounded=0;orthogonalLoop=1;jettySize=auto;html=1;elbow=vertical;curved=0;fontSize=10;labelBackgroundColor=none;" parent="1" source="aM9ryv3xv72pqoxQDRHE-6" target="aM9ryv3xv72pqoxQDRHE-4" edge="1">
                    <mxGeometry relative="1" as="geometry">
                        <mxPoint x="300" y="170" as="sourcePoint"/>
                        <mxPoint x="125" y="170" as="targetPoint"/>
                        <Array as="points">
                            <mxPoint x="230" y="170"/>
                        </Array>
                    </mxGeometry>
                </mxCell>
                <mxCell id="E7vXqbml-rJaC64gT5eP-5" value="建房成功+房间号&amp;nbsp; 或&amp;nbsp; 失败" style="edgeLabel;html=1;align=center;verticalAlign=middle;resizable=0;points=[];fontSize=10;labelBackgroundColor=default;" parent="E7vXqbml-rJaC64gT5eP-4" vertex="1" connectable="0">
                    <mxGeometry x="0.0117" y="-1" relative="1" as="geometry">
                        <mxPoint x="-2" y="1" as="offset"/>
                    </mxGeometry>
                </mxCell>
                <mxCell id="E7vXqbml-rJaC64gT5eP-7" style="edgeStyle=elbowEdgeStyle;rounded=0;orthogonalLoop=1;jettySize=auto;html=1;elbow=vertical;curved=0;fontSize=10;labelBackgroundColor=none;" parent="1" edge="1">
                    <mxGeometry relative="1" as="geometry">
                        <mxPoint x="289.4999999999998" y="189.99999999999997" as="sourcePoint"/>
                        <mxPoint x="130" y="190" as="targetPoint"/>
                        <Array as="points">
                            <mxPoint x="230" y="190"/>
                        </Array>
                    </mxGeometry>
                </mxCell>
                <mxCell id="E7vXqbml-rJaC64gT5eP-8" value="对手加入" style="edgeLabel;html=1;align=center;verticalAlign=middle;resizable=0;points=[];fontSize=10;labelBackgroundColor=default;" parent="E7vXqbml-rJaC64gT5eP-7" vertex="1" connectable="0">
                    <mxGeometry x="0.0117" y="-1" relative="1" as="geometry">
                        <mxPoint x="1" y="1" as="offset"/>
                    </mxGeometry>
                </mxCell>
                <mxCell id="E7vXqbml-rJaC64gT5eP-9" style="edgeStyle=elbowEdgeStyle;rounded=0;orthogonalLoop=1;jettySize=auto;html=1;elbow=vertical;curved=0;fontSize=10;labelBackgroundColor=none;dashed=1;" parent="1" edge="1">
                    <mxGeometry relative="1" as="geometry">
                        <mxPoint x="289.7499999999998" y="259.99999999999994" as="sourcePoint"/>
                        <mxPoint x="130.25" y="260" as="targetPoint"/>
                        <Array as="points">
                            <mxPoint x="230.25" y="260"/>
                        </Array>
                    </mxGeometry>
                </mxCell>
                <mxCell id="E7vXqbml-rJaC64gT5eP-10" value="&lt;div&gt;对手离开 或 游戏结束&lt;/div&gt;" style="edgeLabel;html=1;align=center;verticalAlign=middle;resizable=0;points=[];fontSize=10;labelBackgroundColor=default;" parent="E7vXqbml-rJaC64gT5eP-9" vertex="1" connectable="0">
                    <mxGeometry x="0.0117" y="-1" relative="1" as="geometry">
                        <mxPoint x="1" y="1" as="offset"/>
                    </mxGeometry>
                </mxCell>
                <mxCell id="E7vXqbml-rJaC64gT5eP-11" style="edgeStyle=elbowEdgeStyle;rounded=0;orthogonalLoop=1;jettySize=auto;html=1;elbow=vertical;curved=0;fontSize=10;labelBackgroundColor=none;dashed=1;" parent="1" edge="1">
                    <mxGeometry relative="1" as="geometry">
                        <mxPoint x="131.25" y="280" as="sourcePoint"/>
                        <mxPoint x="288.7499999999998" y="280" as="targetPoint"/>
                        <Array as="points">
                            <mxPoint x="231.5" y="280"/>
                        </Array>
                    </mxGeometry>
                </mxCell>
                <mxCell id="E7vXqbml-rJaC64gT5eP-12" value="离开房间" style="edgeLabel;html=1;align=center;verticalAlign=middle;resizable=0;points=[];fontSize=10;labelBackgroundColor=default;" parent="E7vXqbml-rJaC64gT5eP-11" vertex="1" connectable="0">
                    <mxGeometry x="0.0117" y="-1" relative="1" as="geometry">
                        <mxPoint x="1" y="-1" as="offset"/>
                    </mxGeometry>
                </mxCell>
                <mxCell id="E7vXqbml-rJaC64gT5eP-13" style="edgeStyle=elbowEdgeStyle;rounded=0;orthogonalLoop=1;jettySize=auto;html=1;elbow=vertical;curved=0;fontSize=10;labelBackgroundColor=none;startArrow=classic;startFill=1;shape=flexArrow;width=3.7333333333333334;endSize=2.4626666666666663;endWidth=5.368888888888889;startWidth=5.368888888888889;startSize=2.4626666666666663;" parent="1" edge="1">
                    <mxGeometry relative="1" as="geometry">
                        <mxPoint x="287.5" y="214.71" as="sourcePoint"/>
                        <mxPoint x="130" y="214.71" as="targetPoint"/>
                        <Array as="points">
                            <mxPoint x="230" y="214.71"/>
                        </Array>
                    </mxGeometry>
                </mxCell>
                <mxCell id="E7vXqbml-rJaC64gT5eP-14" value="gameplay" style="edgeLabel;html=1;align=center;verticalAlign=middle;resizable=0;points=[];fontSize=10;labelBackgroundColor=default;" parent="E7vXqbml-rJaC64gT5eP-13" vertex="1" connectable="0">
                    <mxGeometry x="0.0117" y="-1" relative="1" as="geometry">
                        <mxPoint x="1" y="1" as="offset"/>
                    </mxGeometry>
                </mxCell>
                <mxCell id="E7vXqbml-rJaC64gT5eP-37" value="Client" style="shape=umlLifeline;perimeter=lifelinePerimeter;whiteSpace=wrap;html=1;container=0;dropTarget=0;collapsible=0;recursiveResize=0;outlineConnect=0;portConstraint=eastwest;newEdgeStyle={&quot;edgeStyle&quot;:&quot;elbowEdgeStyle&quot;,&quot;elbow&quot;:&quot;vertical&quot;,&quot;curved&quot;:0,&quot;rounded&quot;:0};" parent="1" vertex="1">
                    <mxGeometry x="470" y="30" width="100" height="530" as="geometry"/>
                </mxCell>
                <mxCell id="E7vXqbml-rJaC64gT5eP-38" value="" style="html=1;points=[];perimeter=orthogonalPerimeter;outlineConnect=0;targetShapes=umlLifeline;portConstraint=eastwest;newEdgeStyle={&quot;edgeStyle&quot;:&quot;elbowEdgeStyle&quot;,&quot;elbow&quot;:&quot;vertical&quot;,&quot;curved&quot;:0,&quot;rounded&quot;:0};" parent="E7vXqbml-rJaC64gT5eP-37" vertex="1">
                    <mxGeometry x="45" y="70" width="10" height="460" as="geometry"/>
                </mxCell>
                <mxCell id="E7vXqbml-rJaC64gT5eP-40" value="Server" style="shape=umlLifeline;perimeter=lifelinePerimeter;whiteSpace=wrap;html=1;container=0;dropTarget=0;collapsible=0;recursiveResize=0;outlineConnect=0;portConstraint=eastwest;newEdgeStyle={&quot;edgeStyle&quot;:&quot;elbowEdgeStyle&quot;,&quot;elbow&quot;:&quot;vertical&quot;,&quot;curved&quot;:0,&quot;rounded&quot;:0};" parent="1" vertex="1">
                    <mxGeometry x="670" y="30" width="100" height="530" as="geometry"/>
                </mxCell>
                <mxCell id="E7vXqbml-rJaC64gT5eP-41" value="" style="html=1;points=[];perimeter=orthogonalPerimeter;outlineConnect=0;targetShapes=umlLifeline;portConstraint=eastwest;newEdgeStyle={&quot;edgeStyle&quot;:&quot;elbowEdgeStyle&quot;,&quot;elbow&quot;:&quot;vertical&quot;,&quot;curved&quot;:0,&quot;rounded&quot;:0};" parent="E7vXqbml-rJaC64gT5eP-40" vertex="1">
                    <mxGeometry x="45" y="70" width="10" height="460" as="geometry"/>
                </mxCell>
                <mxCell id="E7vXqbml-rJaC64gT5eP-47" style="edgeStyle=elbowEdgeStyle;rounded=0;orthogonalLoop=1;jettySize=auto;html=1;elbow=vertical;curved=0;fontSize=10;labelBackgroundColor=none;" parent="1" edge="1">
                    <mxGeometry relative="1" as="geometry">
                        <mxPoint x="715" y="179.99999999999997" as="sourcePoint"/>
                        <mxPoint x="525" y="179.99999999999997" as="targetPoint"/>
                        <Array as="points">
                            <mxPoint x="630" y="179.99999999999997"/>
                        </Array>
                    </mxGeometry>
                </mxCell>
                <mxCell id="E7vXqbml-rJaC64gT5eP-63" value="&lt;span style=&quot;font-size: 10px; background-color: rgb(251, 251, 251);&quot;&gt;新回合+&lt;/span&gt;&lt;span style=&quot;background-color: rgb(251, 251, 251);&quot;&gt;公开state&lt;/span&gt;" style="edgeLabel;html=1;align=center;verticalAlign=middle;resizable=0;points=[];" parent="E7vXqbml-rJaC64gT5eP-47" vertex="1" connectable="0">
                    <mxGeometry x="0.1796" y="1" relative="1" as="geometry">
                        <mxPoint x="22" y="-1" as="offset"/>
                    </mxGeometry>
                </mxCell>
                <mxCell id="E7vXqbml-rJaC64gT5eP-51" style="edgeStyle=elbowEdgeStyle;rounded=0;orthogonalLoop=1;jettySize=auto;html=1;elbow=vertical;curved=0;fontSize=10;labelBackgroundColor=none;dashed=1;" parent="1" edge="1">
                    <mxGeometry relative="1" as="geometry">
                        <mxPoint x="699.7499999999998" y="510" as="sourcePoint"/>
                        <mxPoint x="540.25" y="510" as="targetPoint"/>
                        <Array as="points">
                            <mxPoint x="640.25" y="510"/>
                        </Array>
                    </mxGeometry>
                </mxCell>
                <mxCell id="E7vXqbml-rJaC64gT5eP-86" value="游戏结束+输赢" style="edgeLabel;html=1;align=center;verticalAlign=middle;resizable=0;points=[];" parent="E7vXqbml-rJaC64gT5eP-51" vertex="1" connectable="0">
                    <mxGeometry x="0.0756" relative="1" as="geometry">
                        <mxPoint as="offset"/>
                    </mxGeometry>
                </mxCell>
                <mxCell id="E7vXqbml-rJaC64gT5eP-64" value="公开state：&lt;div&gt;双方血量、道具&lt;/div&gt;&lt;div&gt;轮次、回合、是否当前回合的操作者&lt;/div&gt;&lt;div&gt;上次使用道具信息(或空)：使用者、道具类型、使用结果&lt;br&gt;&lt;/div&gt;&lt;div&gt;&lt;br&gt;&lt;/div&gt;&lt;div&gt;隐藏state：&lt;br&gt;枪中子弹数量与类型&lt;/div&gt;&lt;div&gt;&lt;br&gt;&lt;/div&gt;&lt;div&gt;&lt;br&gt;&lt;/div&gt;" style="text;html=1;align=left;verticalAlign=middle;resizable=0;points=[];autosize=1;strokeColor=none;fillColor=none;" parent="1" vertex="1">
                    <mxGeometry x="770" y="70" width="320" height="140" as="geometry"/>
                </mxCell>
                <mxCell id="E7vXqbml-rJaC64gT5eP-65" style="edgeStyle=elbowEdgeStyle;rounded=0;orthogonalLoop=1;jettySize=auto;html=1;elbow=horizontal;curved=0;fontSize=10;labelBackgroundColor=none;dashed=1;endArrow=none;endFill=0;" parent="1" edge="1">
                    <mxGeometry relative="1" as="geometry">
                        <mxPoint x="715" y="240" as="sourcePoint"/>
                        <mxPoint x="525" y="240" as="targetPoint"/>
                        <Array as="points">
                            <mxPoint x="635" y="240"/>
                        </Array>
                    </mxGeometry>
                </mxCell>
                <mxCell id="E7vXqbml-rJaC64gT5eP-66" value="&lt;span style=&quot;font-size: 10px; background-color: rgb(251, 251, 251);&quot;&gt;抽牌阶段&lt;/span&gt;&lt;div&gt;&lt;span style=&quot;font-size: 10px; background-color: rgb(251, 251, 251);&quot;&gt;服务端：三张道具&lt;br&gt;客户端：要哪几张 or 跳过&lt;br&gt;服务端：state&lt;/span&gt;&lt;/div&gt;" style="edgeLabel;html=1;align=center;verticalAlign=middle;resizable=0;points=[];" parent="E7vXqbml-rJaC64gT5eP-65" vertex="1" connectable="0">
                    <mxGeometry x="0.1796" y="1" relative="1" as="geometry">
                        <mxPoint x="22" y="9" as="offset"/>
                    </mxGeometry>
                </mxCell>
                <mxCell id="E7vXqbml-rJaC64gT5eP-67" style="edgeStyle=elbowEdgeStyle;rounded=0;orthogonalLoop=1;jettySize=auto;html=1;elbow=vertical;curved=0;fontSize=10;labelBackgroundColor=none;dashed=1;endArrow=none;endFill=0;" parent="1" edge="1">
                    <mxGeometry relative="1" as="geometry">
                        <mxPoint x="710" y="294.71" as="sourcePoint"/>
                        <mxPoint x="525" y="294.71" as="targetPoint"/>
                        <Array as="points">
                            <mxPoint x="640" y="294.71"/>
                        </Array>
                    </mxGeometry>
                </mxCell>
                <mxCell id="E7vXqbml-rJaC64gT5eP-68" value="&lt;span style=&quot;font-size: 10px; background-color: rgb(251, 251, 251);&quot;&gt;出牌阶段（循环）&lt;/span&gt;&lt;div&gt;&lt;span style=&quot;font-size: 10px; background-color: rgb(251, 251, 251);&quot;&gt;客户端：出几号牌&lt;br&gt;&lt;/span&gt;&lt;span style=&quot;background-color: rgb(251, 251, 251); font-size: 10px;&quot;&gt;服务端：公开state&lt;/span&gt;&lt;span style=&quot;font-size: 10px; background-color: rgb(251, 251, 251);&quot;&gt;&lt;br&gt;&lt;/span&gt;&lt;/div&gt;" style="edgeLabel;html=1;align=center;verticalAlign=middle;resizable=0;points=[];" parent="E7vXqbml-rJaC64gT5eP-67" vertex="1" connectable="0">
                    <mxGeometry x="0.1796" y="1" relative="1" as="geometry">
                        <mxPoint x="22" y="19" as="offset"/>
                    </mxGeometry>
                </mxCell>
                <mxCell id="E7vXqbml-rJaC64gT5eP-69" style="edgeStyle=elbowEdgeStyle;rounded=0;orthogonalLoop=1;jettySize=auto;html=1;elbow=vertical;curved=0;fontSize=10;labelBackgroundColor=none;dashed=1;endArrow=none;endFill=0;" parent="1" edge="1">
                    <mxGeometry relative="1" as="geometry">
                        <mxPoint x="715" y="370" as="sourcePoint"/>
                        <mxPoint x="530" y="370" as="targetPoint"/>
                        <Array as="points">
                            <mxPoint x="645" y="370"/>
                        </Array>
                    </mxGeometry>
                </mxCell>
                <mxCell id="E7vXqbml-rJaC64gT5eP-70" value="&lt;span style=&quot;font-size: 10px;&quot;&gt;开枪阶段&lt;/span&gt;&lt;div&gt;&lt;span style=&quot;font-size: 10px;&quot;&gt;客户端：&lt;/span&gt;&lt;span style=&quot;font-size: 10px;&quot;&gt;向自己或对手开枪&lt;/span&gt;&lt;/div&gt;&lt;div&gt;&lt;span style=&quot;font-size: 10px; background-color: initial;&quot;&gt;服务端：公开state&lt;/span&gt;&lt;br&gt;&lt;/div&gt;" style="edgeLabel;html=1;align=center;verticalAlign=middle;resizable=0;points=[];labelBackgroundColor=none;" parent="E7vXqbml-rJaC64gT5eP-69" vertex="1" connectable="0">
                    <mxGeometry x="0.1796" y="1" relative="1" as="geometry">
                        <mxPoint x="22" y="10" as="offset"/>
                    </mxGeometry>
                </mxCell>
                <mxCell id="E7vXqbml-rJaC64gT5eP-77" style="edgeStyle=elbowEdgeStyle;rounded=0;orthogonalLoop=1;jettySize=auto;html=1;elbow=horizontal;curved=0;fontSize=10;labelBackgroundColor=none;endArrow=none;endFill=0;shape=link;" parent="1" edge="1">
                    <mxGeometry relative="1" as="geometry">
                        <mxPoint x="715" y="139.71" as="sourcePoint"/>
                        <mxPoint x="525" y="139.71" as="targetPoint"/>
                        <Array as="points">
                            <mxPoint x="630" y="139.71"/>
                        </Array>
                    </mxGeometry>
                </mxCell>
                <mxCell id="E7vXqbml-rJaC64gT5eP-81" value="新轮次&lt;div&gt;服务端：公开state+隐藏state&lt;/div&gt;" style="edgeLabel;html=1;align=center;verticalAlign=middle;resizable=0;points=[];" parent="E7vXqbml-rJaC64gT5eP-77" vertex="1" connectable="0">
                    <mxGeometry x="0.0274" relative="1" as="geometry">
                        <mxPoint as="offset"/>
                    </mxGeometry>
                </mxCell>
                <mxCell id="E7vXqbml-rJaC64gT5eP-82" style="edgeStyle=elbowEdgeStyle;rounded=0;orthogonalLoop=1;jettySize=auto;html=1;elbow=horizontal;curved=0;fontSize=10;labelBackgroundColor=none;endArrow=none;endFill=0;" parent="1" edge="1">
                    <mxGeometry relative="1" as="geometry">
                        <mxPoint x="710" y="214.71" as="sourcePoint"/>
                        <mxPoint x="520" y="214.71" as="targetPoint"/>
                        <Array as="points">
                            <mxPoint x="625" y="214.71"/>
                        </Array>
                    </mxGeometry>
                </mxCell>
                <mxCell id="E7vXqbml-rJaC64gT5eP-83" value="&lt;div&gt;自己的回合&lt;/div&gt;&lt;div&gt;&lt;br&gt;&lt;/div&gt;" style="edgeLabel;html=1;align=center;verticalAlign=middle;resizable=0;points=[];labelBackgroundColor=none;" parent="E7vXqbml-rJaC64gT5eP-82" vertex="1" connectable="0">
                    <mxGeometry x="0.0274" relative="1" as="geometry">
                        <mxPoint as="offset"/>
                    </mxGeometry>
                </mxCell>
                <mxCell id="E7vXqbml-rJaC64gT5eP-84" style="edgeStyle=elbowEdgeStyle;rounded=0;orthogonalLoop=1;jettySize=auto;html=1;elbow=horizontal;curved=0;fontSize=10;labelBackgroundColor=none;endArrow=none;endFill=0;" parent="1" edge="1">
                    <mxGeometry relative="1" as="geometry">
                        <mxPoint x="710" y="430" as="sourcePoint"/>
                        <mxPoint x="520" y="430" as="targetPoint"/>
                        <Array as="points">
                            <mxPoint x="625" y="430"/>
                        </Array>
                    </mxGeometry>
                </mxCell>
                <mxCell id="E7vXqbml-rJaC64gT5eP-85" value="&lt;div&gt;对手的回合&lt;/div&gt;&lt;div&gt;每有一个操作 发送一个公开state&lt;/div&gt;" style="edgeLabel;html=1;align=center;verticalAlign=middle;resizable=0;points=[];labelBackgroundColor=none;" parent="E7vXqbml-rJaC64gT5eP-84" vertex="1" connectable="0">
                    <mxGeometry x="0.0274" relative="1" as="geometry">
                        <mxPoint x="8" as="offset"/>
                    </mxGeometry>
                </mxCell>
                <mxCell id="E7vXqbml-rJaC64gT5eP-88" value="&lt;div style=&quot;font-size: 12px;&quot; data-version=&quot;3.0.0&quot; data-hash=&quot;2f150c305c25b675a1c18cc1fd86e9ff&quot;&gt;&lt;/div&gt;&lt;div style=&quot;font-size: 12px;&quot; class=&quot;document&quot;&gt;&lt;div style=&quot;font-size: 12px;&quot; class=&quot;section&quot;&gt;&lt;p class=&quot;paragraph text-align-type-left&quot; style=&quot;text-align: left; line-height: 100%; margin: 12.8pt 0pt; font-size: 12px;&quot;&gt;&lt;span style=&quot;font-size: 12px; font-family: &amp;quot;Times New Roman&amp;quot;; font-weight: normal; font-style: normal; color: rgb(51, 51, 51); letter-spacing: 0pt; vertical-align: baseline;&quot; data-font-family=&quot;&amp;quot;Open Sans&amp;quot;, &amp;quot;Clear Sans&amp;quot;, &amp;quot;Helvetica Neue&amp;quot;, Helvetica, Arial, &amp;quot;Segoe UI Emoji&amp;quot;, sans-serif&quot;&gt;折叠刀：使下一次开枪的伤害翻倍&lt;/span&gt;&lt;span style=&quot;font-size: 12px;&quot; lang=&quot;EN-US&quot;&gt;&lt;/span&gt;&lt;/p&gt;&lt;p class=&quot;paragraph text-align-type-left&quot; style=&quot;text-align: left; line-height: 100%; margin: 12.8pt 0pt; font-size: 12px;&quot;&gt;&lt;span style=&quot;font-size: 12px; font-family: &amp;quot;Times New Roman&amp;quot;; font-weight: normal; font-style: normal; color: rgb(51, 51, 51); letter-spacing: 0pt; vertical-align: baseline;&quot; data-font-family=&quot;&amp;quot;Open Sans&amp;quot;, &amp;quot;Clear Sans&amp;quot;, &amp;quot;Helvetica Neue&amp;quot;, Helvetica, Arial, &amp;quot;Segoe UI Emoji&amp;quot;, sans-serif&quot;&gt;香烟：回复玩家&lt;/span&gt;&lt;span style=&quot;font-size: 12px; font-family: &amp;quot;Times New Roman&amp;quot;; font-weight: normal; font-style: normal; color: rgb(51, 51, 51); letter-spacing: 0pt; vertical-align: baseline;&quot; data-font-family=&quot;&amp;quot;Open Sans&amp;quot;, &amp;quot;Clear Sans&amp;quot;, &amp;quot;Helvetica Neue&amp;quot;, Helvetica, Arial, &amp;quot;Segoe UI Emoji&amp;quot;, sans-serif&quot;&gt;1&lt;/span&gt;&lt;span style=&quot;font-size: 12px; font-family: &amp;quot;Times New Roman&amp;quot;; font-weight: normal; font-style: normal; color: rgb(51, 51, 51); letter-spacing: 0pt; vertical-align: baseline;&quot; data-font-family=&quot;&amp;quot;Open Sans&amp;quot;, &amp;quot;Clear Sans&amp;quot;, &amp;quot;Helvetica Neue&amp;quot;, Helvetica, Arial, &amp;quot;Segoe UI Emoji&amp;quot;, sans-serif&quot;&gt;点血量&lt;/span&gt;&lt;span style=&quot;font-size: 12px;&quot; lang=&quot;EN-US&quot;&gt;&lt;/span&gt;&lt;/p&gt;&lt;p class=&quot;paragraph text-align-type-left&quot; style=&quot;text-align: left; line-height: 100%; margin: 12.8pt 0pt; font-size: 12px;&quot;&gt;&lt;span style=&quot;font-size: 12px; font-family: &amp;quot;Times New Roman&amp;quot;; font-weight: normal; font-style: normal; color: rgb(51, 51, 51); letter-spacing: 0pt; vertical-align: baseline;&quot; data-font-family=&quot;&amp;quot;Open Sans&amp;quot;, &amp;quot;Clear Sans&amp;quot;, &amp;quot;Helvetica Neue&amp;quot;, Helvetica, Arial, &amp;quot;Segoe UI Emoji&amp;quot;, sans-serif&quot;&gt;啤酒&lt;/span&gt;&lt;span style=&quot;font-size: 12px; font-family: &amp;quot;Times New Roman&amp;quot;; font-weight: normal; font-style: normal; color: rgb(51, 51, 51); letter-spacing: 0pt; vertical-align: baseline;&quot; data-font-family=&quot;&amp;quot;Open Sans&amp;quot;, &amp;quot;Clear Sans&amp;quot;, &amp;quot;Helvetica Neue&amp;quot;, Helvetica, Arial, &amp;quot;Segoe UI Emoji&amp;quot;, sans-serif&quot;&gt;：弹出当前枪膛的&lt;/span&gt;&lt;span style=&quot;font-size: 12px; font-family: &amp;quot;Times New Roman&amp;quot;; font-weight: normal; font-style: normal; color: rgb(51, 51, 51); letter-spacing: 0pt; vertical-align: baseline;&quot; data-font-family=&quot;&amp;quot;Open Sans&amp;quot;, &amp;quot;Clear Sans&amp;quot;, &amp;quot;Helvetica Neue&amp;quot;, Helvetica, Arial, &amp;quot;Segoe UI Emoji&amp;quot;, sans-serif&quot;&gt;1&lt;/span&gt;&lt;span style=&quot;font-size: 12px; font-family: &amp;quot;Times New Roman&amp;quot;; font-weight: normal; font-style: normal; color: rgb(51, 51, 51); letter-spacing: 0pt; vertical-align: baseline;&quot; data-font-family=&quot;&amp;quot;Open Sans&amp;quot;, &amp;quot;Clear Sans&amp;quot;, &amp;quot;Helvetica Neue&amp;quot;, Helvetica, Arial, &amp;quot;Segoe UI Emoji&amp;quot;, sans-serif&quot;&gt;枚子弹&lt;/span&gt;&lt;span style=&quot;font-size: 12px; font-family: &amp;quot;Times New Roman&amp;quot;; font-style: normal; color: rgb(51, 51, 51); letter-spacing: 0pt; vertical-align: baseline;&quot; data-font-family=&quot;&amp;quot;Open Sans&amp;quot;, &amp;quot;Clear Sans&amp;quot;, &amp;quot;Helvetica Neue&amp;quot;, Helvetica, Arial, &amp;quot;Segoe UI Emoji&amp;quot;, sans-serif&quot;&gt;&lt;b style=&quot;font-size: 12px;&quot;&gt; 【结果】子弹类型&lt;/b&gt;&lt;/span&gt;&lt;span style=&quot;font-size: 12px;&quot; lang=&quot;EN-US&quot;&gt;&lt;/span&gt;&lt;/p&gt;&lt;p class=&quot;paragraph text-align-type-left&quot; style=&quot;text-align: left; line-height: 100%; margin: 12.8pt 0pt; font-size: 12px;&quot;&gt;&lt;span style=&quot;font-size: 12px; font-family: &amp;quot;Times New Roman&amp;quot;; font-weight: normal; font-style: normal; color: rgb(51, 51, 51); letter-spacing: 0pt; vertical-align: baseline;&quot; data-font-family=&quot;&amp;quot;Open Sans&amp;quot;, &amp;quot;Clear Sans&amp;quot;, &amp;quot;Helvetica Neue&amp;quot;, Helvetica, Arial, &amp;quot;Segoe UI Emoji&amp;quot;, sans-serif&quot;&gt;手铐：对手下一回合无法行动&lt;/span&gt;&lt;span style=&quot;font-size: 12px;&quot; lang=&quot;EN-US&quot;&gt;&lt;/span&gt;&lt;/p&gt;&lt;p class=&quot;paragraph text-align-type-left&quot; style=&quot;text-align: left; line-height: 100%; margin: 12.8pt 0pt; font-size: 12px;&quot;&gt;&lt;span style=&quot;font-size: 12px; font-family: &amp;quot;Times New Roman&amp;quot;; font-weight: normal; font-style: normal; color: rgb(51, 51, 51); letter-spacing: 0pt; vertical-align: baseline;&quot; data-font-family=&quot;&amp;quot;Open Sans&amp;quot;, &amp;quot;Clear Sans&amp;quot;, &amp;quot;Helvetica Neue&amp;quot;, Helvetica, Arial, &amp;quot;Segoe UI Emoji&amp;quot;, sans-serif&quot;&gt;放大镜：是查看当前枪膛内子弹是空包弹还是实弹&lt;/span&gt;&lt;span style=&quot;font-size: 12px;&quot; lang=&quot;EN-US&quot;&gt;&lt;/span&gt;&lt;span style=&quot;color: rgb(51, 51, 51); font-family: &amp;quot;Times New Roman&amp;quot;; font-size: 12px; background-color: initial;&quot;&gt;&lt;b style=&quot;font-size: 12px;&quot;&gt;【结果】子弹类型&lt;/b&gt;&lt;/span&gt;&lt;/p&gt;&lt;p class=&quot;paragraph text-align-type-left&quot; style=&quot;text-align: left; line-height: 100%; margin: 12.8pt 0pt; font-size: 12px;&quot;&gt;&lt;span style=&quot;font-size: 12px; font-family: &amp;quot;Times New Roman&amp;quot;; font-weight: normal; font-style: normal; color: rgb(51, 51, 51); letter-spacing: 0pt; vertical-align: baseline;&quot; data-font-family=&quot;&amp;quot;Open Sans&amp;quot;, &amp;quot;Clear Sans&amp;quot;, &amp;quot;Helvetica Neue&amp;quot;, Helvetica, Arial, &amp;quot;Segoe UI Emoji&amp;quot;, sans-serif&quot;&gt;逆转器：修改当前枪膛内子弹的类型，若为空包弹，则修改为实弹；若为实弹，则修改为空包弹&lt;/span&gt;&lt;span style=&quot;font-size: 12px;&quot; lang=&quot;EN-US&quot;&gt;&lt;/span&gt;&lt;/p&gt;&lt;p class=&quot;paragraph text-align-type-left&quot; style=&quot;text-align: left; line-height: 100%; margin: 12.8pt 0pt; font-size: 12px;&quot;&gt;&lt;span style=&quot;font-size: 12px; font-family: &amp;quot;Times New Roman&amp;quot;; font-weight: normal; font-style: normal; color: rgb(51, 51, 51); letter-spacing: 0pt; vertical-align: baseline;&quot; data-font-family=&quot;&amp;quot;Open Sans&amp;quot;, &amp;quot;Clear Sans&amp;quot;, &amp;quot;Helvetica Neue&amp;quot;, Helvetica, Arial, &amp;quot;Segoe UI Emoji&amp;quot;, sans-serif&quot;&gt;电话：若枪内仍有x颗子弹，查看第2颗到第x颗中随机一颗的子弹类型&lt;/span&gt;&lt;span style=&quot;font-size: 12px;&quot; lang=&quot;EN-US&quot;&gt;&lt;/span&gt;&lt;span style=&quot;color: rgb(51, 51, 51); font-family: &amp;quot;Times New Roman&amp;quot;; font-size: 12px; background-color: initial;&quot;&gt;&lt;b style=&quot;font-size: 12px;&quot;&gt;【结果】子弹类型&lt;/b&gt;&lt;/span&gt;&lt;/p&gt;&lt;p class=&quot;paragraph text-align-type-left&quot; style=&quot;text-align: left; line-height: 100%; margin: 12.8pt 0pt; font-size: 12px;&quot;&gt;&lt;span style=&quot;font-size: 12px; font-family: &amp;quot;Times New Roman&amp;quot;; font-weight: normal; font-style: normal; color: rgb(51, 51, 51); letter-spacing: 0pt; vertical-align: baseline;&quot; data-font-family=&quot;&amp;quot;Open Sans&amp;quot;, &amp;quot;Clear Sans&amp;quot;, &amp;quot;Helvetica Neue&amp;quot;, Helvetica, Arial, &amp;quot;Segoe UI Emoji&amp;quot;, sans-serif&quot;&gt;药盒：服用后，有50%概率回复玩家2点血量，50%概率扣除玩家1点血量&lt;/span&gt;&lt;span style=&quot;font-size: 12px;&quot; lang=&quot;EN-US&quot;&gt;&lt;/span&gt;&lt;/p&gt;&lt;/div&gt;&lt;/div&gt;" style="text;whiteSpace=wrap;html=1;fontSize=12;" parent="1" vertex="1">
                    <mxGeometry x="770" y="220" width="800" height="220" as="geometry"/>
                </mxCell>
                <mxCell id="2" value="" style="html=1;points=[];perimeter=orthogonalPerimeter;outlineConnect=0;targetShapes=umlLifeline;portConstraint=eastwest;newEdgeStyle={&quot;edgeStyle&quot;:&quot;elbowEdgeStyle&quot;,&quot;elbow&quot;:&quot;vertical&quot;,&quot;curved&quot;:0,&quot;rounded&quot;:0};fontSize=10;" vertex="1" parent="1">
                    <mxGeometry x="120" y="340" width="10" height="110" as="geometry"/>
                </mxCell>
                <mxCell id="3" value="" style="html=1;points=[];perimeter=orthogonalPerimeter;outlineConnect=0;targetShapes=umlLifeline;portConstraint=eastwest;newEdgeStyle={&quot;edgeStyle&quot;:&quot;elbowEdgeStyle&quot;,&quot;elbow&quot;:&quot;vertical&quot;,&quot;curved&quot;:0,&quot;rounded&quot;:0};fontSize=10;" vertex="1" parent="1">
                    <mxGeometry x="287.5" y="340" width="25" height="110" as="geometry"/>
                </mxCell>
                <mxCell id="4" value="握手" style="html=1;verticalAlign=bottom;endArrow=block;edgeStyle=elbowEdgeStyle;elbow=vertical;curved=0;rounded=0;fontSize=10;labelBackgroundColor=default;" edge="1" parent="1">
                    <mxGeometry x="0.0017" y="-10" relative="1" as="geometry">
                        <mxPoint x="130" y="319.66" as="sourcePoint"/>
                        <Array as="points">
                            <mxPoint x="215" y="319.66"/>
                        </Array>
                        <mxPoint as="offset"/>
                        <mxPoint x="300" y="319.66" as="targetPoint"/>
                    </mxGeometry>
                </mxCell>
                <mxCell id="5" style="edgeStyle=elbowEdgeStyle;rounded=0;orthogonalLoop=1;jettySize=auto;html=1;elbow=vertical;curved=0;fontSize=10;labelBackgroundColor=none;" edge="1" parent="1">
                    <mxGeometry relative="1" as="geometry">
                        <Array as="points">
                            <mxPoint x="230" y="329.66"/>
                        </Array>
                        <mxPoint x="300" y="329.66" as="sourcePoint"/>
                        <mxPoint x="130" y="329.66" as="targetPoint"/>
                    </mxGeometry>
                </mxCell>
                <mxCell id="6" value="握手成功" style="edgeLabel;html=1;align=center;verticalAlign=middle;resizable=0;points=[];fontSize=10;labelBackgroundColor=default;" vertex="1" connectable="0" parent="5">
                    <mxGeometry x="0.0117" y="-1" relative="1" as="geometry">
                        <mxPoint y="1" as="offset"/>
                    </mxGeometry>
                </mxCell>
                <mxCell id="9" value="进房+roomid" style="html=1;verticalAlign=bottom;endArrow=block;edgeStyle=elbowEdgeStyle;elbow=vertical;curved=0;rounded=0;fontSize=10;labelBackgroundColor=default;" edge="1" parent="1">
                    <mxGeometry y="-10" relative="1" as="geometry">
                        <mxPoint x="130" y="360" as="sourcePoint"/>
                        <Array as="points">
                            <mxPoint x="225" y="360"/>
                        </Array>
                        <mxPoint x="299.9999999999999" y="360" as="targetPoint"/>
                        <mxPoint as="offset"/>
                    </mxGeometry>
                </mxCell>
                <mxCell id="10" style="edgeStyle=elbowEdgeStyle;rounded=0;orthogonalLoop=1;jettySize=auto;html=1;elbow=vertical;curved=0;fontSize=10;labelBackgroundColor=none;" edge="1" parent="1">
                    <mxGeometry relative="1" as="geometry">
                        <mxPoint x="295" y="380" as="sourcePoint"/>
                        <mxPoint x="130" y="380" as="targetPoint"/>
                        <Array as="points">
                            <mxPoint x="230" y="380"/>
                        </Array>
                    </mxGeometry>
                </mxCell>
                <mxCell id="11" value="进房成功&amp;nbsp; 或&amp;nbsp; 失败" style="edgeLabel;html=1;align=center;verticalAlign=middle;resizable=0;points=[];fontSize=10;labelBackgroundColor=default;" vertex="1" connectable="0" parent="10">
                    <mxGeometry x="0.0117" y="-1" relative="1" as="geometry">
                        <mxPoint x="-2" y="1" as="offset"/>
                    </mxGeometry>
                </mxCell>
                <mxCell id="12" style="edgeStyle=elbowEdgeStyle;rounded=0;orthogonalLoop=1;jettySize=auto;html=1;elbow=vertical;curved=0;fontSize=10;labelBackgroundColor=none;startArrow=classic;startFill=1;shape=flexArrow;width=3.7333333333333334;endSize=2.4626666666666663;endWidth=5.368888888888889;startWidth=5.368888888888889;startSize=2.4626666666666663;" edge="1" parent="1">
                    <mxGeometry relative="1" as="geometry">
                        <mxPoint x="287.5" y="399.9999999999999" as="sourcePoint"/>
                        <mxPoint x="130" y="399.9999999999999" as="targetPoint"/>
                        <Array as="points">
                            <mxPoint x="230" y="400"/>
                        </Array>
                    </mxGeometry>
                </mxCell>
                <mxCell id="13" value="gameplay" style="edgeLabel;html=1;align=center;verticalAlign=middle;resizable=0;points=[];fontSize=10;labelBackgroundColor=default;" vertex="1" connectable="0" parent="12">
                    <mxGeometry x="0.0117" y="-1" relative="1" as="geometry">
                        <mxPoint x="1" y="1" as="offset"/>
                    </mxGeometry>
                </mxCell>
                <mxCell id="14" style="edgeStyle=elbowEdgeStyle;rounded=0;orthogonalLoop=1;jettySize=auto;html=1;elbow=vertical;curved=0;fontSize=10;labelBackgroundColor=none;dashed=1;" edge="1" parent="1">
                    <mxGeometry relative="1" as="geometry">
                        <mxPoint x="289.49999999999966" y="429.9999999999999" as="sourcePoint"/>
                        <mxPoint x="130" y="429.9999999999999" as="targetPoint"/>
                        <Array as="points">
                            <mxPoint x="230" y="430"/>
                        </Array>
                    </mxGeometry>
                </mxCell>
                <mxCell id="15" value="&lt;div&gt;对手离开 或 游戏结束&lt;/div&gt;" style="edgeLabel;html=1;align=center;verticalAlign=middle;resizable=0;points=[];fontSize=10;labelBackgroundColor=default;" vertex="1" connectable="0" parent="14">
                    <mxGeometry x="0.0117" y="-1" relative="1" as="geometry">
                        <mxPoint x="1" y="1" as="offset"/>
                    </mxGeometry>
                </mxCell>
                <mxCell id="16" style="edgeStyle=elbowEdgeStyle;rounded=0;orthogonalLoop=1;jettySize=auto;html=1;elbow=vertical;curved=0;fontSize=10;labelBackgroundColor=none;dashed=1;" edge="1" parent="1">
                    <mxGeometry relative="1" as="geometry">
                        <mxPoint x="131" y="449.9999999999999" as="sourcePoint"/>
                        <mxPoint x="288.4999999999999" y="449.9999999999999" as="targetPoint"/>
                        <Array as="points">
                            <mxPoint x="231.25" y="450"/>
                        </Array>
                    </mxGeometry>
                </mxCell>
                <mxCell id="17" value="离开房间" style="edgeLabel;html=1;align=center;verticalAlign=middle;resizable=0;points=[];fontSize=10;labelBackgroundColor=default;" vertex="1" connectable="0" parent="16">
                    <mxGeometry x="0.0117" y="-1" relative="1" as="geometry">
                        <mxPoint x="1" y="-1" as="offset"/>
                    </mxGeometry>
                </mxCell>
            </root>
        </mxGraphModel>
    </diagram>
</mxfile>
